<svg xmlns="http://www.w3.org/2000/svg" width="75" viewBox="0 0 75 37.5" height="37.5" version="1.0"><g fill="#FFC1B2" fill-opacity=".302"><g><g><path d="M 4.839844 -7.355469 C 4.71875 -7.242188 4.578125 -7.195312 4.425781 -7.195312 L 3.734375 -7.195312 C 3.21875 -7.195312 2.753906 -7.09375 2.332031 -6.90625 C 1.910156 -6.714844 1.550781 -6.433594 1.238281 -6.066406 C 0.972656 -5.742188 0.769531 -5.382812 0.628906 -4.972656 C 0.484375 -4.566406 0.421875 -4.144531 0.421875 -3.691406 C 0.421875 -3.253906 0.492188 -2.824219 0.632812 -2.410156 C 0.773438 -1.988281 0.980469 -1.613281 1.261719 -1.289062 C 1.542969 -0.957031 1.886719 -0.691406 2.296875 -0.492188 C 2.707031 -0.289062 3.183594 -0.191406 3.734375 -0.191406 L 4.425781 -0.191406 C 4.578125 -0.191406 4.71875 -0.132812 4.839844 -0.0273438 C 4.875 0.0078125 4.917969 0.015625 4.960938 -0.0078125 C 5.003906 -0.0195312 5.023438 -0.0546875 5.023438 -0.113281 L 5.023438 -1.683594 C 5.023438 -1.726562 5.003906 -1.761719 4.960938 -1.78125 C 4.917969 -1.796875 4.882812 -1.789062 4.855469 -1.761719 C 4.71875 -1.640625 4.574219 -1.585938 4.410156 -1.585938 L 3.734375 -1.585938 C 3.355469 -1.585938 3.035156 -1.65625 2.789062 -1.804688 C 2.542969 -1.945312 2.347656 -2.128906 2.207031 -2.347656 C 2.0625 -2.558594 1.957031 -2.789062 1.902344 -3.03125 C 1.847656 -3.269531 1.816406 -3.496094 1.816406 -3.691406 C 1.816406 -3.972656 1.859375 -4.242188 1.945312 -4.503906 C 2.027344 -4.753906 2.15625 -4.980469 2.3125 -5.171875 C 2.65625 -5.585938 3.128906 -5.796875 3.734375 -5.796875 L 4.410156 -5.796875 C 4.574219 -5.796875 4.71875 -5.734375 4.855469 -5.621094 C 4.882812 -5.585938 4.917969 -5.578125 4.960938 -5.601562 C 5.003906 -5.617188 5.023438 -5.652344 5.023438 -5.699219 L 5.023438 -7.277344 C 5.023438 -7.320312 5.003906 -7.355469 4.960938 -7.375 C 4.917969 -7.390625 4.875 -7.382812 4.839844 -7.355469 Z M 4.839844 -7.355469" transform="translate(9.046 16.584)"/></g></g></g><g fill="#FFC1B2" fill-opacity=".302"><g><g><path d="M 5.121094 -1.558594 L 5.039062 -1.488281 C 4.960938 -1.417969 4.875 -1.386719 4.785156 -1.386719 L 2.601562 -1.386719 C 2.550781 -1.386719 2.507812 -1.402344 2.480469 -1.429688 C 2.445312 -1.457031 2.429688 -1.5 2.429688 -1.558594 L 2.429688 -6.375 C 2.429688 -6.539062 2.488281 -6.6875 2.601562 -6.8125 L 2.605469 -6.820312 C 2.628906 -6.855469 2.628906 -6.890625 2.613281 -6.933594 C 2.59375 -6.96875 2.558594 -6.988281 2.515625 -6.988281 L 0.957031 -6.988281 C 0.910156 -6.988281 0.875 -6.96875 0.859375 -6.933594 C 0.839844 -6.890625 0.839844 -6.855469 0.867188 -6.820312 C 0.980469 -6.691406 1.035156 -6.546875 1.035156 -6.382812 L 1.035156 -0.15625 C 1.035156 -0.105469 1.050781 -0.0625 1.085938 -0.0351562 C 1.113281 0 1.15625 0.015625 1.203125 0.015625 L 4.785156 0.015625 C 4.875 0.015625 4.960938 0.0507812 5.039062 0.113281 L 5.121094 0.183594 C 5.15625 0.210938 5.191406 0.210938 5.234375 0.191406 C 5.269531 0.175781 5.292969 0.140625 5.292969 0.0898438 L 5.292969 -1.464844 C 5.292969 -1.507812 5.269531 -1.542969 5.234375 -1.5625 C 5.191406 -1.578125 5.15625 -1.578125 5.121094 -1.558594 Z M 5.121094 -1.558594" transform="translate(14.922 16.584)"/></g></g></g><g fill="#FFC1B2" fill-opacity=".302"><g><g><path d="M 5.328125 -5.902344 C 5.058594 -6.257812 4.742188 -6.523438 4.390625 -6.714844 C 4.03125 -6.898438 3.65625 -6.996094 3.261719 -6.996094 C 2.867188 -6.996094 2.488281 -6.898438 2.128906 -6.714844 C 1.769531 -6.523438 1.457031 -6.257812 1.191406 -5.902344 C 0.9375 -5.574219 0.746094 -5.199219 0.621094 -4.789062 C 0.484375 -4.382812 0.421875 -3.945312 0.421875 -3.496094 C 0.421875 -3.042969 0.484375 -2.605469 0.621094 -2.199219 C 0.746094 -1.78125 0.9375 -1.417969 1.191406 -1.09375 C 1.457031 -0.738281 1.769531 -0.464844 2.128906 -0.28125 C 2.488281 -0.0898438 2.867188 0 3.261719 0 C 3.65625 0 4.03125 -0.0898438 4.390625 -0.28125 C 4.742188 -0.464844 5.058594 -0.738281 5.328125 -1.09375 C 5.578125 -1.417969 5.769531 -1.78125 5.902344 -2.199219 C 6.03125 -2.605469 6.101562 -3.042969 6.101562 -3.496094 C 6.101562 -3.945312 6.03125 -4.382812 5.902344 -4.789062 C 5.769531 -5.199219 5.578125 -5.574219 5.328125 -5.902344 Z M 3.261719 -1.394531 C 3.066406 -1.394531 2.875 -1.453125 2.707031 -1.5625 C 2.53125 -1.675781 2.375 -1.824219 2.246094 -2.015625 C 2.113281 -2.207031 2.007812 -2.429688 1.929688 -2.683594 C 1.851562 -2.9375 1.816406 -3.207031 1.816406 -3.496094 C 1.816406 -3.777344 1.851562 -4.050781 1.929688 -4.304688 C 2.007812 -4.558594 2.113281 -4.777344 2.246094 -4.972656 C 2.375 -5.164062 2.53125 -5.320312 2.707031 -5.433594 C 2.875 -5.542969 3.066406 -5.601562 3.261719 -5.601562 C 3.460938 -5.601562 3.640625 -5.542969 3.820312 -5.433594 C 3.988281 -5.320312 4.144531 -5.164062 4.269531 -4.972656 C 4.394531 -4.777344 4.503906 -4.558594 4.578125 -4.304688 C 4.65625 -4.050781 4.699219 -3.777344 4.699219 -3.496094 C 4.699219 -3.207031 4.65625 -2.9375 4.578125 -2.683594 C 4.503906 -2.429688 4.394531 -2.207031 4.269531 -2.015625 C 4.144531 -1.824219 3.988281 -1.675781 3.820312 -1.5625 C 3.640625 -1.453125 3.460938 -1.394531 3.261719 -1.394531 Z M 3.261719 -1.394531" transform="translate(20.643 16.584)"/></g></g></g><g fill="#FFC1B2" fill-opacity=".302"><g><g><path d="M 6.039062 -6.996094 L 4.480469 -6.996094 C 4.429688 -6.996094 4.394531 -6.976562 4.382812 -6.941406 C 4.359375 -6.898438 4.359375 -6.863281 4.390625 -6.828125 C 4.503906 -6.691406 4.566406 -6.546875 4.566406 -6.382812 L 4.566406 -2.277344 C 4.566406 -2.058594 4.507812 -1.886719 4.410156 -1.777344 C 4.3125 -1.65625 4.199219 -1.570312 4.074219 -1.515625 C 3.945312 -1.457031 3.824219 -1.421875 3.714844 -1.410156 C 3.601562 -1.394531 3.53125 -1.394531 3.5 -1.394531 C 3.472656 -1.394531 3.394531 -1.394531 3.285156 -1.410156 C 3.171875 -1.421875 3.050781 -1.457031 2.925781 -1.515625 C 2.796875 -1.570312 2.683594 -1.65625 2.585938 -1.777344 C 2.488281 -1.886719 2.4375 -2.058594 2.4375 -2.277344 L 2.4375 -6.382812 C 2.4375 -6.550781 2.492188 -6.699219 2.605469 -6.828125 C 2.628906 -6.863281 2.628906 -6.898438 2.613281 -6.941406 C 2.59375 -6.976562 2.558594 -6.996094 2.515625 -6.996094 L 0.957031 -6.996094 C 0.910156 -6.996094 0.875 -6.976562 0.859375 -6.941406 C 0.839844 -6.898438 0.839844 -6.863281 0.867188 -6.828125 C 0.980469 -6.699219 1.035156 -6.550781 1.035156 -6.382812 L 1.035156 -2.277344 C 1.035156 -1.921875 1.105469 -1.597656 1.246094 -1.304688 C 1.386719 -1.007812 1.585938 -0.753906 1.851562 -0.542969 C 2.078125 -0.359375 2.332031 -0.226562 2.613281 -0.132812 C 2.894531 -0.0351562 3.191406 0.0078125 3.5 0.0078125 C 3.8125 0.0078125 4.101562 -0.0351562 4.382812 -0.132812 C 4.664062 -0.226562 4.917969 -0.359375 5.144531 -0.542969 C 5.410156 -0.753906 5.609375 -1.007812 5.75 -1.304688 C 5.890625 -1.597656 5.960938 -1.921875 5.960938 -2.277344 L 5.960938 -6.382812 C 5.960938 -6.539062 6.015625 -6.6875 6.128906 -6.828125 C 6.15625 -6.863281 6.15625 -6.898438 6.136719 -6.941406 C 6.117188 -6.976562 6.082031 -6.996094 6.039062 -6.996094 Z M 6.039062 -6.996094" transform="translate(27.168 16.584)"/></g></g></g><g fill="#FFC1B2" fill-opacity=".302"><g><g><path d="M 5.425781 -5.757812 C 5.199219 -6.15625 4.925781 -6.46875 4.601562 -6.679688 C 4.277344 -6.890625 3.910156 -7.003906 3.515625 -7.003906 L 0.949219 -7.003906 C 0.902344 -7.003906 0.867188 -6.980469 0.851562 -6.941406 C 0.832031 -6.898438 0.839844 -6.855469 0.875 -6.828125 C 1 -6.6875 1.070312 -6.515625 1.070312 -6.328125 L 1.070312 -0.667969 C 1.070312 -0.480469 1 -0.308594 0.875 -0.167969 C 0.839844 -0.132812 0.832031 -0.0976562 0.851562 -0.0546875 C 0.867188 -0.015625 0.902344 0 0.949219 0 L 3.515625 0 C 3.910156 0 4.277344 -0.105469 4.601562 -0.316406 C 4.925781 -0.527344 5.199219 -0.832031 5.425781 -1.234375 C 5.585938 -1.535156 5.714844 -1.882812 5.804688 -2.269531 C 5.898438 -2.65625 5.945312 -3.066406 5.945312 -3.496094 C 5.945312 -3.917969 5.898438 -4.324219 5.804688 -4.714844 C 5.714844 -5.101562 5.585938 -5.445312 5.425781 -5.757812 Z M 4.199219 -1.910156 C 4.128906 -1.78125 4.058594 -1.683594 3.988281 -1.613281 C 3.917969 -1.542969 3.847656 -1.488281 3.789062 -1.457031 C 3.726562 -1.421875 3.671875 -1.402344 3.621094 -1.402344 C 3.570312 -1.394531 3.535156 -1.394531 3.515625 -1.394531 L 2.726562 -1.394531 C 2.65625 -1.394531 2.59375 -1.417969 2.542969 -1.472656 C 2.488281 -1.523438 2.464844 -1.585938 2.464844 -1.65625 L 2.464844 -5.257812 C 2.464844 -5.347656 2.492188 -5.425781 2.566406 -5.496094 C 2.636719 -5.566406 2.71875 -5.601562 2.816406 -5.601562 L 3.515625 -5.601562 C 3.671875 -5.601562 3.820312 -5.539062 3.945312 -5.417969 C 4.074219 -5.292969 4.183594 -5.128906 4.277344 -4.933594 C 4.359375 -4.734375 4.429688 -4.507812 4.480469 -4.253906 C 4.523438 -4 4.550781 -3.75 4.550781 -3.496094 C 4.550781 -3.183594 4.515625 -2.886719 4.460938 -2.613281 C 4.394531 -2.339844 4.3125 -2.105469 4.199219 -1.910156 Z M 4.199219 -1.910156" transform="translate(34.17 16.584)"/></g></g></g><g fill="#FFC1B2" fill-opacity=".302"><g><g><path d="M 6.566406 -0.175781 L 6.558594 -0.183594 C 6.445312 -0.296875 6.398438 -0.4375 6.398438 -0.605469 L 6.398438 -6.398438 C 6.398438 -6.558594 6.445312 -6.699219 6.558594 -6.820312 L 6.566406 -6.828125 C 6.585938 -6.863281 6.585938 -6.898438 6.574219 -6.941406 C 6.550781 -6.980469 6.515625 -7.003906 6.476562 -7.003906 L 4.917969 -7.003906 C 4.867188 -7.003906 4.832031 -6.980469 4.820312 -6.941406 C 4.796875 -6.898438 4.796875 -6.863281 4.828125 -6.828125 L 4.832031 -6.820312 C 4.9375 -6.699219 4.996094 -6.558594 4.996094 -6.398438 L 4.996094 -2.894531 C 4.996094 -2.867188 4.980469 -2.847656 4.953125 -2.839844 C 4.925781 -2.832031 4.902344 -2.839844 4.890625 -2.867188 L 2.683594 -6.574219 C 2.628906 -6.65625 2.640625 -6.742188 2.710938 -6.828125 C 2.734375 -6.863281 2.734375 -6.898438 2.71875 -6.941406 C 2.699219 -6.980469 2.664062 -7.003906 2.621094 -7.003906 L 2.429688 -7.003906 L 2.429688 -6.996094 L 2.429688 -7.003906 L 0.957031 -7.003906 C 0.910156 -7.003906 0.875 -6.980469 0.859375 -6.941406 C 0.839844 -6.898438 0.839844 -6.863281 0.867188 -6.828125 C 0.980469 -6.699219 1.035156 -6.558594 1.035156 -6.40625 L 1.035156 -0.597656 C 1.035156 -0.4375 0.980469 -0.296875 0.867188 -0.175781 C 0.839844 -0.132812 0.839844 -0.0976562 0.859375 -0.0546875 C 0.875 -0.015625 0.910156 0 0.957031 0 L 2.515625 0 C 2.558594 0 2.59375 -0.015625 2.613281 -0.0546875 C 2.628906 -0.0976562 2.628906 -0.132812 2.605469 -0.175781 L 2.59375 -0.191406 C 2.480469 -0.304688 2.429688 -0.445312 2.429688 -0.613281 L 2.429688 -4.109375 C 2.429688 -4.136719 2.4375 -4.148438 2.464844 -4.15625 C 2.492188 -4.164062 2.515625 -4.15625 2.535156 -4.136719 L 4.75 -0.421875 C 4.789062 -0.332031 4.785156 -0.246094 4.71875 -0.175781 C 4.691406 -0.132812 4.691406 -0.0976562 4.714844 -0.0546875 C 4.726562 -0.015625 4.761719 0 4.8125 0 L 6.476562 0 C 6.515625 0 6.550781 -0.015625 6.574219 -0.0546875 C 6.585938 -0.0976562 6.585938 -0.132812 6.566406 -0.175781 Z M 6.566406 -0.175781" transform="translate(40.681 16.584)"/></g></g></g><g fill="#FFC1B2" fill-opacity=".302"><g><g><path d="M 2.4375 -0.621094 L 2.4375 -6.382812 C 2.4375 -6.550781 2.492188 -6.699219 2.605469 -6.828125 C 2.628906 -6.863281 2.628906 -6.898438 2.613281 -6.941406 C 2.59375 -6.980469 2.558594 -7.003906 2.515625 -7.003906 L 0.957031 -7.003906 C 0.910156 -7.003906 0.875 -6.980469 0.859375 -6.941406 C 0.839844 -6.898438 0.839844 -6.863281 0.867188 -6.828125 C 0.980469 -6.699219 1.042969 -6.550781 1.042969 -6.382812 L 1.042969 -0.621094 C 1.042969 -0.449219 0.980469 -0.304688 0.867188 -0.175781 C 0.839844 -0.132812 0.839844 -0.0976562 0.859375 -0.0546875 C 0.875 -0.015625 0.910156 0 0.957031 0 L 2.515625 0 C 2.558594 0 2.59375 -0.015625 2.613281 -0.0546875 C 2.628906 -0.0976562 2.628906 -0.132812 2.605469 -0.175781 C 2.550781 -0.234375 2.507812 -0.304688 2.480469 -0.378906 C 2.453125 -0.457031 2.4375 -0.535156 2.4375 -0.621094 Z M 2.4375 -0.621094" transform="translate(48.114 16.584)"/></g></g></g><g fill="#FFC1B2" fill-opacity=".302"><g><g><path d="M 5.128906 -7.050781 C 5.007812 -6.941406 4.867188 -6.890625 4.714844 -6.890625 L 0.957031 -6.890625 C 0.910156 -6.890625 0.875 -6.871094 0.859375 -6.828125 C 0.839844 -6.785156 0.839844 -6.75 0.867188 -6.714844 L 0.886719 -6.691406 C 1 -6.566406 1.058594 -6.417969 1.058594 -6.25 L 1.058594 -0.527344 C 1.058594 -0.445312 1.042969 -0.367188 1.015625 -0.289062 C 0.988281 -0.210938 0.945312 -0.140625 0.886719 -0.0859375 L 0.867188 -0.0625 C 0.839844 -0.0195312 0.839844 0.015625 0.859375 0.0546875 C 0.875 0.0976562 0.910156 0.113281 0.957031 0.113281 L 4.714844 0.113281 C 4.867188 0.113281 5.007812 0.167969 5.128906 0.273438 C 5.164062 0.308594 5.207031 0.316406 5.25 0.296875 C 5.292969 0.28125 5.320312 0.246094 5.320312 0.191406 L 5.320312 -1.382812 C 5.320312 -1.421875 5.296875 -1.457031 5.257812 -1.480469 C 5.214844 -1.492188 5.171875 -1.488281 5.144531 -1.457031 C 5.015625 -1.339844 4.867188 -1.28125 4.699219 -1.28125 L 2.628906 -1.28125 C 2.578125 -1.28125 2.535156 -1.296875 2.5 -1.332031 C 2.464844 -1.359375 2.453125 -1.402344 2.453125 -1.457031 L 2.453125 -2.515625 C 2.453125 -2.566406 2.464844 -2.605469 2.5 -2.640625 C 2.535156 -2.671875 2.578125 -2.691406 2.628906 -2.691406 L 3.246094 -2.691406 C 3.417969 -2.691406 3.566406 -2.628906 3.691406 -2.515625 C 3.726562 -2.488281 3.761719 -2.488281 3.804688 -2.507812 C 3.847656 -2.53125 3.867188 -2.566406 3.867188 -2.605469 L 3.867188 -4.171875 C 3.867188 -4.214844 3.847656 -4.242188 3.804688 -4.261719 C 3.761719 -4.285156 3.726562 -4.285156 3.691406 -4.261719 C 3.566406 -4.144531 3.417969 -4.085938 3.246094 -4.085938 L 2.628906 -4.085938 C 2.578125 -4.085938 2.535156 -4.101562 2.5 -4.136719 C 2.464844 -4.164062 2.453125 -4.207031 2.453125 -4.261719 L 2.453125 -5.320312 C 2.453125 -5.367188 2.464844 -5.410156 2.5 -5.445312 C 2.535156 -5.472656 2.578125 -5.496094 2.628906 -5.496094 L 4.699219 -5.496094 C 4.867188 -5.496094 5.015625 -5.433594 5.144531 -5.320312 C 5.171875 -5.285156 5.214844 -5.277344 5.257812 -5.296875 C 5.296875 -5.3125 5.320312 -5.347656 5.320312 -5.398438 L 5.320312 -6.976562 C 5.320312 -7.015625 5.292969 -7.050781 5.25 -7.074219 C 5.207031 -7.085938 5.164062 -7.082031 5.128906 -7.050781 Z M 5.128906 -7.050781" transform="translate(59.028 16.584)"/></g></g></g><g fill="#FFC1B2" fill-opacity=".302"><g><g><path d="M 6.121094 -0.175781 L 6.109375 -0.183594 C 5.996094 -0.304688 5.945312 -0.445312 5.945312 -0.613281 L 5.945312 -6.390625 C 5.945312 -6.550781 5.996094 -6.691406 6.109375 -6.820312 L 6.121094 -6.828125 C 6.144531 -6.863281 6.144531 -6.898438 6.121094 -6.941406 C 6.101562 -6.980469 6.074219 -7.003906 6.03125 -7.003906 L 4.46875 -7.003906 C 4.425781 -7.003906 4.390625 -6.980469 4.367188 -6.941406 C 4.347656 -6.898438 4.347656 -6.863281 4.375 -6.828125 L 4.382812 -6.828125 C 4.496094 -6.699219 4.550781 -6.550781 4.550781 -6.398438 L 4.550781 -4.429688 C 4.550781 -4.359375 4.523438 -4.304688 4.480469 -4.261719 C 4.429688 -4.21875 4.375 -4.199219 4.3125 -4.199219 L 2.675781 -4.199219 C 2.605469 -4.199219 2.550781 -4.21875 2.507812 -4.261719 C 2.457031 -4.304688 2.4375 -4.359375 2.4375 -4.429688 L 2.4375 -6.40625 C 2.4375 -6.558594 2.492188 -6.699219 2.605469 -6.828125 C 2.628906 -6.863281 2.628906 -6.898438 2.613281 -6.941406 C 2.59375 -6.980469 2.558594 -7.003906 2.515625 -7.003906 L 0.957031 -7.003906 C 0.910156 -7.003906 0.875 -6.980469 0.859375 -6.941406 C 0.839844 -6.898438 0.839844 -6.863281 0.867188 -6.828125 L 0.878906 -6.8125 C 0.988281 -6.691406 1.042969 -6.550781 1.042969 -6.390625 L 1.042969 -0.621094 C 1.042969 -0.449219 0.988281 -0.304688 0.878906 -0.191406 L 0.867188 -0.175781 C 0.839844 -0.132812 0.839844 -0.0976562 0.859375 -0.0546875 C 0.875 -0.015625 0.910156 0 0.957031 0 L 2.515625 0 C 2.558594 0 2.59375 -0.015625 2.613281 -0.0546875 C 2.628906 -0.0976562 2.628906 -0.132812 2.605469 -0.175781 C 2.492188 -0.304688 2.4375 -0.445312 2.4375 -0.605469 L 2.4375 -2.570312 C 2.4375 -2.636719 2.457031 -2.691406 2.507812 -2.734375 C 2.550781 -2.777344 2.605469 -2.804688 2.675781 -2.804688 L 4.3125 -2.804688 C 4.375 -2.804688 4.429688 -2.777344 4.480469 -2.734375 C 4.523438 -2.691406 4.550781 -2.636719 4.550781 -2.570312 L 4.550781 -0.605469 C 4.550781 -0.445312 4.496094 -0.304688 4.382812 -0.183594 L 4.375 -0.175781 C 4.347656 -0.132812 4.347656 -0.0976562 4.367188 -0.0546875 C 4.390625 -0.015625 4.425781 0 4.46875 0 L 6.03125 0 C 6.074219 0 6.101562 -0.015625 6.121094 -0.0546875 C 6.144531 -0.0976562 6.144531 -0.132812 6.121094 -0.175781 Z M 6.121094 -0.175781" transform="translate(12.79 28.326)"/></g></g></g><g fill="#FFC1B2" fill-opacity=".302"><g><g><path d="M 5.792969 -5.269531 L 5.757812 -5.3125 C 5.65625 -5.410156 5.59375 -5.523438 5.550781 -5.652344 C 5.425781 -6.046875 5.164062 -6.371094 4.785156 -6.621094 C 4.574219 -6.757812 4.332031 -6.863281 4.066406 -6.933594 C 3.796875 -7.003906 3.523438 -7.039062 3.226562 -7.039062 C 2.929688 -7.039062 2.640625 -6.996094 2.367188 -6.925781 C 2.09375 -6.855469 1.847656 -6.75 1.628906 -6.617188 C 1.332031 -6.433594 1.113281 -6.214844 0.957031 -5.953125 C 0.804688 -5.691406 0.734375 -5.410156 0.734375 -5.101562 C 0.734375 -4.507812 1.007812 -4 1.570312 -3.585938 C 1.769531 -3.429688 1.980469 -3.304688 2.210938 -3.191406 C 2.445312 -3.078125 2.683594 -2.964844 2.925781 -2.867188 C 3.066406 -2.796875 3.21875 -2.726562 3.375 -2.65625 C 3.53125 -2.585938 3.671875 -2.507812 3.796875 -2.4375 C 3.925781 -2.359375 4.03125 -2.28125 4.113281 -2.207031 C 4.199219 -2.121094 4.242188 -2.042969 4.242188 -1.964844 C 4.242188 -1.867188 4.207031 -1.777344 4.136719 -1.703125 C 4.066406 -1.632812 3.972656 -1.570312 3.867188 -1.527344 C 3.761719 -1.488281 3.648438 -1.453125 3.523438 -1.429688 C 3.394531 -1.402344 3.285156 -1.394531 3.171875 -1.394531 C 3.03125 -1.394531 2.886719 -1.410156 2.734375 -1.445312 C 2.578125 -1.472656 2.445312 -1.527344 2.339844 -1.605469 C 2.3125 -1.628906 2.289062 -1.65625 2.289062 -1.691406 C 2.28125 -1.726562 2.289062 -1.753906 2.316406 -1.78125 L 2.324219 -1.789062 C 2.347656 -1.824219 2.347656 -1.859375 2.332031 -1.902344 C 2.3125 -1.945312 2.277344 -1.964844 2.234375 -1.964844 L 0.675781 -1.964844 C 0.628906 -1.964844 0.59375 -1.945312 0.578125 -1.902344 C 0.554688 -1.859375 0.554688 -1.824219 0.585938 -1.789062 L 0.613281 -1.761719 C 0.710938 -1.648438 0.773438 -1.527344 0.816406 -1.410156 C 0.945312 -1 1.199219 -0.675781 1.59375 -0.429688 C 1.804688 -0.289062 2.050781 -0.183594 2.316406 -0.113281 C 2.585938 -0.0351562 2.875 0 3.171875 0 C 3.523438 0 3.855469 -0.0507812 4.15625 -0.148438 C 4.460938 -0.246094 4.71875 -0.378906 4.9375 -0.554688 C 5.15625 -0.726562 5.328125 -0.9375 5.453125 -1.175781 C 5.574219 -1.417969 5.636719 -1.675781 5.636719 -1.964844 C 5.636719 -2.269531 5.566406 -2.535156 5.433594 -2.761719 C 5.296875 -2.988281 5.128906 -3.183594 4.917969 -3.355469 C 4.707031 -3.523438 4.480469 -3.664062 4.226562 -3.789062 C 3.972656 -3.917969 3.726562 -4.03125 3.488281 -4.144531 C 3.324219 -4.214844 3.164062 -4.285156 3 -4.359375 C 2.839844 -4.429688 2.691406 -4.507812 2.566406 -4.59375 C 2.4375 -4.671875 2.332031 -4.753906 2.246094 -4.839844 C 2.164062 -4.925781 2.128906 -5.007812 2.128906 -5.101562 C 2.128906 -5.179688 2.15625 -5.25 2.226562 -5.320312 C 2.289062 -5.390625 2.375 -5.445312 2.480469 -5.496094 C 2.578125 -5.539062 2.699219 -5.574219 2.832031 -5.601562 C 2.960938 -5.628906 3.09375 -5.644531 3.226562 -5.644531 C 3.382812 -5.644531 3.535156 -5.621094 3.679688 -5.59375 C 3.820312 -5.558594 3.929688 -5.507812 4.03125 -5.445312 C 4.058594 -5.425781 4.078125 -5.398438 4.078125 -5.363281 C 4.078125 -5.328125 4.074219 -5.296875 4.050781 -5.277344 L 4.050781 -5.269531 C 4.023438 -5.226562 4.023438 -5.191406 4.042969 -5.15625 C 4.058594 -5.113281 4.09375 -5.101562 4.144531 -5.101562 L 5.699219 -5.101562 C 5.742188 -5.101562 5.777344 -5.113281 5.796875 -5.15625 C 5.8125 -5.191406 5.8125 -5.226562 5.792969 -5.269531 Z M 5.792969 -5.269531" transform="translate(26.303 28.326)"/></g></g></g><g fill="#FFC1B2" fill-opacity=".302"><g><g><path d="M 5.039062 -6.15625 C 4.8125 -6.425781 4.539062 -6.636719 4.226562 -6.785156 C 3.910156 -6.925781 3.566406 -7.003906 3.199219 -7.003906 L 0.949219 -7.003906 C 0.902344 -7.003906 0.867188 -6.980469 0.851562 -6.941406 C 0.832031 -6.898438 0.839844 -6.863281 0.875 -6.828125 C 1 -6.6875 1.070312 -6.515625 1.070312 -6.328125 L 1.070312 -0.675781 C 1.070312 -0.480469 1 -0.316406 0.875 -0.175781 C 0.839844 -0.132812 0.832031 -0.0976562 0.851562 -0.0546875 C 0.867188 -0.015625 0.902344 0 0.949219 0 L 2.542969 0 C 2.585938 0 2.621094 -0.015625 2.636719 -0.0546875 C 2.648438 -0.0976562 2.648438 -0.132812 2.621094 -0.175781 C 2.515625 -0.289062 2.464844 -0.414062 2.464844 -0.554688 L 2.464844 -1.585938 C 2.464844 -1.65625 2.488281 -1.71875 2.542969 -1.777344 C 2.59375 -1.824219 2.65625 -1.851562 2.734375 -1.851562 L 3.199219 -1.851562 C 3.566406 -1.851562 3.910156 -1.921875 4.226562 -2.0625 C 4.539062 -2.207031 4.8125 -2.417969 5.039062 -2.691406 C 5.226562 -2.925781 5.375 -3.191406 5.472656 -3.488281 C 5.574219 -3.785156 5.628906 -4.09375 5.628906 -4.417969 C 5.628906 -4.742188 5.574219 -5.058594 5.472656 -5.355469 C 5.375 -5.652344 5.226562 -5.917969 5.039062 -6.15625 Z M 3.960938 -3.578125 C 3.785156 -3.355469 3.53125 -3.246094 3.199219 -3.246094 L 2.664062 -3.246094 C 2.605469 -3.246094 2.566406 -3.261719 2.523438 -3.304688 C 2.480469 -3.339844 2.464844 -3.382812 2.464844 -3.4375 L 2.464844 -5.410156 C 2.464844 -5.460938 2.480469 -5.503906 2.523438 -5.542969 C 2.566406 -5.585938 2.605469 -5.609375 2.664062 -5.609375 L 3.199219 -5.609375 C 3.453125 -5.609375 3.640625 -5.550781 3.785156 -5.4375 C 3.925781 -5.328125 4.023438 -5.199219 4.09375 -5.058594 C 4.15625 -4.917969 4.199219 -4.785156 4.214844 -4.65625 C 4.226562 -4.53125 4.234375 -4.445312 4.234375 -4.417969 C 4.234375 -4.25 4.207031 -4.09375 4.164062 -3.953125 C 4.113281 -3.8125 4.042969 -3.683594 3.960938 -3.578125 Z M 3.960938 -3.578125" transform="translate(32.679 28.326)"/></g></g></g><g fill="#FFC1B2" fill-opacity=".302"><g><g><path d="M 5.515625 -7.179688 L 5.507812 -7.171875 C 5.382812 -7.058594 5.242188 -7.003906 5.078125 -7.003906 L 1.457031 -7.003906 C 1.289062 -7.003906 1.148438 -7.058594 1.023438 -7.171875 L 1.023438 -7.179688 C 0.980469 -7.199219 0.945312 -7.199219 0.902344 -7.179688 C 0.859375 -7.160156 0.84375 -7.128906 0.84375 -7.085938 L 0.84375 -5.523438 C 0.84375 -5.472656 0.859375 -5.4375 0.902344 -5.425781 C 0.945312 -5.402344 0.980469 -5.402344 1.023438 -5.433594 C 1.148438 -5.542969 1.289062 -5.609375 1.457031 -5.609375 L 2.429688 -5.609375 C 2.464844 -5.609375 2.5 -5.59375 2.53125 -5.566406 C 2.558594 -5.539062 2.570312 -5.503906 2.570312 -5.46875 L 2.570312 -0.621094 C 2.570312 -0.449219 2.515625 -0.304688 2.402344 -0.183594 L 2.394531 -0.175781 C 2.367188 -0.132812 2.367188 -0.0976562 2.386719 -0.0546875 C 2.402344 -0.015625 2.4375 0 2.488281 0 L 4.050781 0 C 4.09375 0 4.121094 -0.015625 4.144531 -0.0546875 C 4.164062 -0.0976562 4.164062 -0.132812 4.144531 -0.175781 C 4.023438 -0.304688 3.964844 -0.445312 3.964844 -0.613281 L 3.964844 -5.46875 C 3.964844 -5.503906 3.980469 -5.539062 4.007812 -5.566406 C 4.035156 -5.59375 4.066406 -5.609375 4.109375 -5.609375 L 5.078125 -5.609375 C 5.25 -5.609375 5.390625 -5.542969 5.507812 -5.433594 L 5.515625 -5.433594 C 5.550781 -5.402344 5.585938 -5.402344 5.628906 -5.425781 C 5.671875 -5.4375 5.691406 -5.472656 5.691406 -5.523438 L 5.691406 -7.085938 C 5.691406 -7.128906 5.671875 -7.160156 5.628906 -7.179688 C 5.585938 -7.199219 5.550781 -7.199219 5.515625 -7.179688 Z M 5.515625 -7.179688" transform="translate(42.36 28.326)"/></g></g></g><g fill="#FFC1B2" fill-opacity=".302"><g><g><path d="M 6.410156 -0.125 C 6.410156 -0.15625 6.398438 -0.175781 6.375 -0.191406 C 6.214844 -0.324219 6.109375 -0.492188 6.050781 -0.703125 L 4.367188 -6.523438 C 4.332031 -6.636719 4.355469 -6.742188 4.4375 -6.828125 C 4.460938 -6.863281 4.460938 -6.898438 4.445312 -6.941406 C 4.425781 -6.980469 4.390625 -7.003906 4.347656 -7.003906 L 2.488281 -7.003906 C 2.445312 -7.003906 2.410156 -6.980469 2.386719 -6.941406 C 2.367188 -6.898438 2.367188 -6.863281 2.394531 -6.828125 C 2.480469 -6.742188 2.5 -6.636719 2.464844 -6.523438 L 0.789062 -0.699219 C 0.734375 -0.5 0.621094 -0.332031 0.457031 -0.191406 C 0.4375 -0.167969 0.421875 -0.148438 0.421875 -0.125 C 0.414062 -0.0898438 0.421875 -0.0625 0.445312 -0.0351562 C 0.464844 -0.0078125 0.492188 0 0.535156 0 L 2.171875 0 C 2.210938 0 2.246094 -0.015625 2.261719 -0.0546875 C 2.277344 -0.0976562 2.277344 -0.132812 2.246094 -0.167969 C 2.164062 -0.253906 2.140625 -0.359375 2.171875 -0.472656 L 2.386719 -1.203125 C 2.410156 -1.28125 2.453125 -1.34375 2.515625 -1.386719 C 2.570312 -1.429688 2.640625 -1.457031 2.726562 -1.457031 L 4.113281 -1.457031 C 4.191406 -1.457031 4.261719 -1.429688 4.324219 -1.386719 C 4.382812 -1.34375 4.425781 -1.28125 4.453125 -1.203125 L 4.664062 -0.472656 C 4.691406 -0.359375 4.664062 -0.261719 4.59375 -0.175781 L 4.59375 -0.167969 C 4.566406 -0.125 4.566406 -0.0898438 4.585938 -0.0546875 C 4.601562 -0.015625 4.636719 0 4.683594 0 L 6.304688 0 C 6.339844 0 6.371094 -0.0078125 6.390625 -0.0351562 C 6.410156 -0.0625 6.417969 -0.0898438 6.410156 -0.125 Z M 3.875 -2.851562 L 2.964844 -2.851562 C 2.9375 -2.851562 2.917969 -2.859375 2.902344 -2.882812 C 2.882812 -2.902344 2.875 -2.929688 2.886719 -2.960938 L 3.347656 -4.53125 C 3.355469 -4.566406 3.375 -4.585938 3.417969 -4.585938 C 3.460938 -4.585938 3.480469 -4.566406 3.496094 -4.53125 L 3.945312 -2.960938 C 3.953125 -2.929688 3.945312 -2.902344 3.929688 -2.882812 C 3.917969 -2.859375 3.894531 -2.851562 3.875 -2.851562 Z M 3.875 -2.851562" transform="translate(48.898 28.326)"/></g></g></g></svg>